<?xml version="1.0" encoding="UTF-8" standalone="no"?>
<!-- Created with Inkscape (http://www.inkscape.org/) -->

<svg
   width="41.415668mm"
   height="11.936018mm"
   viewBox="0 0 41.415668 11.936018"
   version="1.1"
   id="svg1"
   xmlns="http://www.w3.org/2000/svg"
   xmlns:svg="http://www.w3.org/2000/svg">
  <defs
     id="defs1" />
  <g
     id="layer1"
     transform="translate(-146.57917,-99.483327)">
    <g
       id="g226"
       transform="matrix(0.35277777,0,0,-0.35277777,167.33126,105.59828)"
       style="stroke:#e7c066;stroke-opacity:1">
      <path
         d="M 0,0 C -0.31,4.506 -3.341,7.303 -3.341,7.303 1.028,8.914 2.563,17.247 0.077,16.821 -2.409,16.396 -0.544,8.468 3.341,7.147 3.341,7.147 0,3.418 0,0"
         style="fill:none;stroke:#e7c066;stroke-width:1;stroke-linecap:round;stroke-linejoin:miter;stroke-miterlimit:10;stroke-dasharray:none;stroke-opacity:1"
         id="path228" />
    </g>
    <g
       id="g230"
       transform="matrix(0.35277777,0,0,-0.35277777,167.33091,105.46288)"
       style="stroke:#e7c066;stroke-opacity:1">
      <path
         d="m 0,0 c -4.506,-0.311 -7.303,-3.341 -7.303,-3.341 -1.611,4.368 -9.943,5.904 -9.517,3.418 0.424,-2.486 8.353,-0.621 9.674,3.263 C -7.146,3.34 -3.418,0 0,0"
         style="fill:none;stroke:#e7c066;stroke-width:1;stroke-linecap:round;stroke-linejoin:miter;stroke-miterlimit:10;stroke-dasharray:none;stroke-opacity:1"
         id="path232" />
    </g>
    <g
       id="g234"
       transform="matrix(0.35277777,0,0,-0.35277777,167.33091,105.46288)"
       style="stroke:#e7c066;stroke-opacity:1">
      <path
         d="M 0,0 C 4.506,-0.311 7.303,-3.341 7.303,-3.341 8.914,1.027 17.248,2.563 16.822,0.077 16.396,-2.409 8.469,-0.544 7.148,3.34 7.148,3.34 3.418,0 0,0"
         style="fill:none;stroke:#e7c066;stroke-width:1;stroke-linecap:round;stroke-linejoin:miter;stroke-miterlimit:10;stroke-dasharray:none;stroke-opacity:1"
         id="path236" />
    </g>
    <g
       id="g238"
       transform="matrix(0.35277777,0,0,-0.35277777,167.33126,105.30406)"
       style="stroke:#e7c066;stroke-opacity:1">
      <path
         d="m 0,0 c -0.31,-4.507 -3.341,-7.303 -3.341,-7.303 4.369,-1.612 5.904,-9.944 3.418,-9.519 -2.486,0.425 -0.621,8.353 3.264,9.675 C 3.341,-7.147 0,-3.419 0,0"
         style="fill:none;stroke:#e7c066;stroke-width:1;stroke-linecap:round;stroke-linejoin:miter;stroke-miterlimit:10;stroke-dasharray:none;stroke-opacity:1"
         id="path240" />
    </g>
    <g
       id="g242"
       transform="matrix(0.35277777,0,0,-0.35277777,151.80181,105.46306)"
       style="stroke:#e7c066;stroke-opacity:1">
      <path
         d="m 0,0 c -3.829,-0.264 -6.205,-2.838 -6.205,-2.838 -1.37,3.712 -8.45,5.016 -8.089,2.904 0.36,-2.112 7.099,-0.528 8.221,2.772 C -6.073,2.838 -2.905,0 0,0"
         style="fill:none;stroke:#e7c066;stroke-width:1;stroke-linecap:round;stroke-linejoin:miter;stroke-miterlimit:10;stroke-dasharray:none;stroke-opacity:1"
         id="path244" />
    </g>
    <g
       id="g246"
       transform="matrix(0.35277777,0,0,-0.35277777,151.89483,105.46306)"
       style="stroke:#e7c066;stroke-opacity:1">
      <path
         d="M 0,0 H 26.669"
         style="fill:none;stroke:#e7c066;stroke-width:1;stroke-linecap:round;stroke-linejoin:miter;stroke-miterlimit:10;stroke-dasharray:none;stroke-opacity:1"
         id="path248" />
    </g>
    <g
       id="g250"
       transform="matrix(0.35277777,0,0,-0.35277777,182.7722,105.46306)"
       style="fill:none;fill-opacity:1;stroke:#e7c066;stroke-opacity:1">
      <path
         d="m 0,0 c 3.829,-0.264 6.205,-2.838 6.205,-2.838 1.37,3.712 8.45,5.016 8.089,2.904 C 13.934,-2.046 7.195,-0.462 6.073,2.838 6.073,2.838 2.905,0 0,0"
         style="fill:none;fill-opacity:1;stroke:#e7c066;stroke-width:1;stroke-linecap:round;stroke-linejoin:miter;stroke-miterlimit:10;stroke-dasharray:none;stroke-opacity:1"
         id="path252" />
    </g>
    <g
       id="g254"
       transform="matrix(0.35277777,0,0,-0.35277777,182.67917,105.46306)"
       style="fill:none;fill-opacity:1;stroke:#e7c066;stroke-opacity:1">
      <path
         d="M 0,0 H -26.669"
         style="fill:none;fill-opacity:1;stroke:#e7c066;stroke-width:1;stroke-linecap:round;stroke-linejoin:miter;stroke-miterlimit:10;stroke-dasharray:none;stroke-opacity:1"
         id="path256" />
    </g>
  </g>
</svg>
