<?xml version="1.0" encoding="UTF-8" standalone="no"?>
<!-- Created with Inkscape (http://www.inkscape.org/) -->

<svg
   width="48.24538mm"
   height="9.0920868mm"
   viewBox="0 0 48.24538 9.0920868"
   version="1.1"
   id="svg1"
   xmlns="http://www.w3.org/2000/svg"
   xmlns:svg="http://www.w3.org/2000/svg">
  <defs
     id="defs1" />
  <g
     id="layer1"
     transform="translate(-117.475,-97.102081)">
    <g
       id="g315"
       transform="matrix(0.26458333,0,0,0.26458333,101.42319,39.080225)"
       style="fill:#ffffff;fill-opacity:1">
		<g
   id="g303"
   style="fill:#ffffff;fill-opacity:1">
			<path
   style="fill:#ffffff;fill-opacity:1"
   d="M 242.263,237.227 H 98.102 c -0.414,0 -0.75,-0.336 -0.75,-0.75 0,-0.414 0.336,-0.75 0.75,-0.75 h 144.161 c 0.414,0 0.75,0.336 0.75,0.75 0,0.415 -0.336,0.75 -0.75,0.75 z"
   id="path302" />

		</g>

		<g
   id="g304"
   style="fill:#ffffff;fill-opacity:1">
			<path
   style="fill:#ffffff;fill-opacity:1"
   d="M 90.752,237.227 H 61.42 c -0.414,0 -0.75,-0.336 -0.75,-0.75 0,-0.414 0.336,-0.75 0.75,-0.75 h 29.333 c 0.414,0 0.75,0.336 0.75,0.75 -0.001,0.415 -0.337,0.75 -0.751,0.75 z"
   id="path303" />

		</g>

		<g
   id="g311"
   style="fill:#ffffff;fill-opacity:1">
			<g
   id="g307"
   style="fill:#ffffff;fill-opacity:1">
				<g
   id="g305"
   style="fill:#ffffff;fill-opacity:1">
					<path
   style="fill:#ffffff;fill-opacity:1"
   d="m 80.284,253.659 c -1.694,0 -3.455,-0.711 -4.854,-2.109 -3.01,-3.011 -4.039,-7.433 -2.56,-11.004 1.269,-3.063 4.087,-4.819 7.732,-4.819 0.414,0 0.75,0.336 0.75,0.75 0,0.414 -0.336,0.75 -0.75,0.75 -3.008,0 -5.321,1.419 -6.346,3.894 -1.25,3.018 -0.352,6.782 2.234,9.369 2.013,2.014 4.953,2.232 6.693,0.497 1.246,-1.243 1.63,-3.443 0.115,-4.976 -0.946,-0.958 -1.87,-0.967 -2.478,-0.807 -0.861,0.227 -1.456,0.879 -1.598,1.406 -0.102,0.379 0.044,0.58 0.163,0.699 0.293,0.293 0.293,0.768 0,1.061 -0.293,0.293 -0.768,0.293 -1.061,0 -0.566,-0.565 -0.767,-1.35 -0.55,-2.151 0.307,-1.135 1.377,-2.126 2.664,-2.465 0.811,-0.216 2.399,-0.343 3.927,1.202 2.172,2.196 1.644,5.331 -0.123,7.093 -1.081,1.079 -2.494,1.61 -3.958,1.61 z"
   id="path304" />

				</g>

				<g
   id="g306"
   style="fill:#ffffff;fill-opacity:1">
					<path
   style="fill:#ffffff;fill-opacity:1"
   d="m 75.961,251.77 c -0.192,0 -0.384,-0.073 -0.53,-0.22 L 60.888,237.007 c -0.293,-0.293 -0.293,-0.768 0,-1.061 0.293,-0.293 0.768,-0.293 1.061,0 l 14.543,14.543 c 0.293,0.293 0.293,0.768 0,1.061 -0.147,0.146 -0.339,0.22 -0.531,0.22 z"
   id="path305" />

				</g>

			</g>

			<g
   id="g310"
   style="fill:#ffffff;fill-opacity:1">
				<g
   id="g308"
   style="fill:#ffffff;fill-opacity:1">
					<path
   style="fill:#ffffff;fill-opacity:1"
   d="m 80.603,237.227 c -3.645,0 -6.463,-1.757 -7.732,-4.819 -1.479,-3.571 -0.45,-7.993 2.56,-11.004 2.607,-2.606 6.478,-2.825 8.813,-0.499 1.767,1.762 2.295,4.896 0.123,7.094 -1.526,1.545 -3.117,1.414 -3.927,1.202 -1.287,-0.34 -2.357,-1.331 -2.664,-2.466 -0.216,-0.802 -0.016,-1.586 0.55,-2.151 0.293,-0.293 0.768,-0.293 1.061,0 0.293,0.293 0.293,0.768 0,1.061 -0.119,0.119 -0.265,0.32 -0.163,0.699 0.142,0.527 0.737,1.18 1.598,1.406 0.609,0.16 1.531,0.15 2.478,-0.806 1.515,-1.532 1.131,-3.733 -0.116,-4.977 -1.739,-1.732 -4.679,-1.516 -6.693,0.497 -2.586,2.587 -3.484,6.352 -2.234,9.369 1.025,2.475 3.337,3.894 6.346,3.894 0.414,0 0.75,0.336 0.75,0.75 0,0.414 -0.336,0.75 -0.75,0.75 z"
   id="path307" />

				</g>

				<g
   id="g309"
   style="fill:#ffffff;fill-opacity:1">
					<path
   style="fill:#ffffff;fill-opacity:1"
   d="m 61.418,237.227 c -0.192,0 -0.384,-0.073 -0.53,-0.22 -0.293,-0.293 -0.293,-0.768 0,-1.061 l 14.543,-14.543 c 0.293,-0.293 0.767,-0.293 1.061,0 0.293,0.293 0.293,0.768 0,1.061 l -14.543,14.543 c -0.147,0.146 -0.339,0.22 -0.531,0.22 z"
   id="path308" />

				</g>

			</g>

		</g>

		<g
   id="g312"
   style="fill:#ffffff;fill-opacity:1">
			<path
   style="fill:#ffffff;fill-opacity:1"
   d="m 94.427,246.85 c -0.414,0 -0.75,-0.336 -0.75,-0.75 v -5.955 c 0,-0.414 0.336,-0.75 0.75,-0.75 0.414,0 0.75,0.336 0.75,0.75 v 5.955 c 0,0.414 -0.336,0.75 -0.75,0.75 z"
   id="path311" />

		</g>

		<g
   id="g313"
   style="fill:#ffffff;fill-opacity:1">
			<path
   style="fill:#ffffff;fill-opacity:1"
   d="m 94.427,233.553 c -0.414,0 -0.75,-0.336 -0.75,-0.75 v -5.948 c 0,-0.414 0.336,-0.75 0.75,-0.75 0.414,0 0.75,0.336 0.75,0.75 v 5.948 c 0,0.414 -0.336,0.75 -0.75,0.75 z"
   id="path312" />

		</g>

		<g
   id="g314"
   style="fill:#ffffff;fill-opacity:1">
			<path
   style="fill:#ffffff;fill-opacity:1"
   d="m 94.427,240.895 c -2.44,0 -4.425,-1.981 -4.425,-4.417 0,-2.439 1.985,-4.425 4.425,-4.425 2.44,0 4.425,1.985 4.425,4.425 0,2.435 -1.985,4.417 -4.425,4.417 z m 0,-7.342 c -1.613,0 -2.925,1.313 -2.925,2.925 0,1.608 1.312,2.917 2.925,2.917 1.613,0 2.925,-1.309 2.925,-2.917 0,-1.613 -1.312,-2.925 -2.925,-2.925 z"
   id="path313" />

		</g>

	</g>
  </g>
</svg>
