<?xml version="1.0" encoding="UTF-8" standalone="no"?>
<!-- Created with Inkscape (http://www.inkscape.org/) -->

<svg
   width="48.245911mm"
   height="9.0922842mm"
   viewBox="0 0 48.245911 9.0922842"
   version="1.1"
   id="svg1"
   xmlns="http://www.w3.org/2000/svg"
   xmlns:svg="http://www.w3.org/2000/svg">
  <defs
     id="defs1" />
  <g
     id="layer1"
     transform="translate(-113.50625,-56.620833)">
    <g
       id="g335"
       transform="matrix(0.26458333,0,0,0.26458333,-119.03022,-1.4008257)"
       style="fill:#ffffff;fill-opacity:1">
		<g
   id="g323"
   style="fill:#ffffff;fill-opacity:1">
			<path
   style="fill:#ffffff;fill-opacity:1"
   d="M 1023.789,237.227 H 879.628 c -0.414,0 -0.75,-0.336 -0.75,-0.75 0,-0.414 0.336,-0.75 0.75,-0.75 h 144.161 c 0.414,0 0.75,0.336 0.75,0.75 0,0.415 -0.336,0.75 -0.75,0.75 z"
   id="path322" />

		</g>

		<g
   id="g324"
   style="fill:#ffffff;fill-opacity:1">
			<path
   style="fill:#ffffff;fill-opacity:1"
   d="m 1060.472,237.227 h -29.333 c -0.414,0 -0.75,-0.336 -0.75,-0.75 0,-0.414 0.336,-0.75 0.75,-0.75 h 29.333 c 0.414,0 0.75,0.336 0.75,0.75 0,0.415 -0.336,0.75 -0.75,0.75 z"
   id="path323" />

		</g>

		<g
   id="g331"
   style="fill:#ffffff;fill-opacity:1">
			<g
   id="g327"
   style="fill:#ffffff;fill-opacity:1">
				<g
   id="g325"
   style="fill:#ffffff;fill-opacity:1">
					<path
   style="fill:#ffffff;fill-opacity:1"
   d="m 1041.607,253.659 c -1.464,0 -2.876,-0.531 -3.959,-1.61 -1.767,-1.762 -2.296,-4.895 -0.124,-7.093 1.527,-1.545 3.115,-1.419 3.927,-1.202 1.286,0.339 2.356,1.33 2.663,2.465 0.216,0.802 0.016,1.586 -0.55,2.151 -0.293,0.293 -0.768,0.293 -1.061,0 -0.293,-0.293 -0.293,-0.768 0,-1.061 0.119,-0.119 0.265,-0.32 0.163,-0.699 -0.142,-0.527 -0.737,-1.18 -1.597,-1.406 -0.607,-0.16 -1.532,-0.151 -2.479,0.807 -1.515,1.532 -1.131,3.733 0.116,4.976 1.74,1.734 4.68,1.518 6.693,-0.497 2.586,-2.587 3.484,-6.352 2.234,-9.369 -1.024,-2.475 -3.337,-3.894 -6.346,-3.894 -0.414,0 -0.75,-0.336 -0.75,-0.75 0,-0.414 0.336,-0.75 0.75,-0.75 3.645,0 6.463,1.757 7.732,4.819 1.479,3.571 0.45,7.993 -2.56,11.004 -1.396,1.398 -3.158,2.109 -4.852,2.109 z"
   id="path324" />

				</g>

				<g
   id="g326"
   style="fill:#ffffff;fill-opacity:1">
					<path
   style="fill:#ffffff;fill-opacity:1"
   d="m 1045.93,251.77 c -0.192,0 -0.384,-0.073 -0.53,-0.22 -0.293,-0.293 -0.293,-0.768 0,-1.061 l 14.543,-14.543 c 0.293,-0.293 0.768,-0.293 1.061,0 0.293,0.293 0.293,0.768 0,1.061 l -14.543,14.543 c -0.147,0.146 -0.339,0.22 -0.531,0.22 z"
   id="path325" />

				</g>

			</g>

			<g
   id="g330"
   style="fill:#ffffff;fill-opacity:1">
				<g
   id="g328"
   style="fill:#ffffff;fill-opacity:1">
					<path
   style="fill:#ffffff;fill-opacity:1"
   d="m 1041.289,237.227 c -0.414,0 -0.75,-0.336 -0.75,-0.75 0,-0.414 0.336,-0.75 0.75,-0.75 3.008,0 5.321,-1.419 6.346,-3.894 1.25,-3.018 0.352,-6.782 -2.234,-9.369 -2.014,-2.014 -4.953,-2.232 -6.693,-0.497 -1.246,1.242 -1.63,3.444 -0.115,4.977 0.946,0.957 1.871,0.967 2.478,0.806 0.861,-0.226 1.456,-0.879 1.598,-1.406 0.103,-0.379 -0.044,-0.58 -0.163,-0.699 -0.293,-0.293 -0.293,-0.768 0,-1.061 0.293,-0.293 0.768,-0.293 1.061,0 0.566,0.565 0.767,1.35 0.55,2.151 -0.307,1.135 -1.376,2.126 -2.663,2.466 -0.812,0.212 -2.4,0.343 -3.927,-1.202 -2.172,-2.198 -1.643,-5.333 0.124,-7.094 2.334,-2.327 6.206,-2.108 8.812,0.499 3.01,3.011 4.039,7.433 2.56,11.004 -1.271,3.062 -4.089,4.819 -7.734,4.819 z"
   id="path327" />

				</g>

				<g
   id="g329"
   style="fill:#ffffff;fill-opacity:1">
					<path
   style="fill:#ffffff;fill-opacity:1"
   d="m 1060.474,237.227 c -0.192,0 -0.384,-0.073 -0.53,-0.22 l -14.543,-14.543 c -0.293,-0.293 -0.293,-0.768 0,-1.061 0.293,-0.293 0.768,-0.293 1.061,0 l 14.543,14.543 c 0.293,0.293 0.293,0.768 0,1.061 -0.148,0.146 -0.339,0.22 -0.531,0.22 z"
   id="path328" />

				</g>

			</g>

		</g>

		<g
   id="g332"
   style="fill:#ffffff;fill-opacity:1">
			<path
   style="fill:#ffffff;fill-opacity:1"
   d="m 1027.464,246.85 c -0.414,0 -0.75,-0.336 -0.75,-0.75 v -5.955 c 0,-0.414 0.336,-0.75 0.75,-0.75 0.414,0 0.75,0.336 0.75,0.75 v 5.955 c 0,0.414 -0.336,0.75 -0.75,0.75 z"
   id="path331" />

		</g>

		<g
   id="g333"
   style="fill:#ffffff;fill-opacity:1">
			<path
   style="fill:#ffffff;fill-opacity:1"
   d="m 1027.464,233.553 c -0.414,0 -0.75,-0.336 -0.75,-0.75 v -5.948 c 0,-0.414 0.336,-0.75 0.75,-0.75 0.414,0 0.75,0.336 0.75,0.75 v 5.948 c 0,0.414 -0.336,0.75 -0.75,0.75 z"
   id="path332" />

		</g>

		<g
   id="g334"
   style="fill:#ffffff;fill-opacity:1">
			<path
   style="fill:#ffffff;fill-opacity:1"
   d="m 1027.464,240.895 c -2.44,0 -4.425,-1.981 -4.425,-4.417 0,-2.439 1.985,-4.425 4.425,-4.425 2.44,0 4.425,1.985 4.425,4.425 0,2.435 -1.985,4.417 -4.425,4.417 z m 0,-7.342 c -1.613,0 -2.925,1.313 -2.925,2.925 0,1.608 1.313,2.917 2.925,2.917 1.612,0 2.925,-1.309 2.925,-2.917 0,-1.613 -1.312,-2.925 -2.925,-2.925 z"
   id="path333" />

		</g>

	</g>
  </g>
</svg>
